<mxfile host="Electron" modified="2024-06-29T14:49:29.826Z" agent="Mozilla/5.0 (Macintosh; Intel Mac OS X 10_15_7) AppleWebKit/537.36 (KHTML, like Gecko) draw.io/24.6.1 Chrome/124.0.6367.207 Electron/30.0.6 Safari/537.36" etag="V3_K_cAxLUjvB9Kh-mft" version="24.6.1" type="device" pages="3">
  <diagram id="2KWoJs11sjGpFvYaniT2" name="tiny_llm_trainer">
    <mxGraphModel dx="1420" dy="840" grid="1" gridSize="10" guides="1" tooltips="1" connect="1" arrows="1" fold="1" page="1" pageScale="1" pageWidth="100" pageHeight="100" math="0" shadow="0">
      <root>
        <mxCell id="0" />
        <mxCell id="1" parent="0" />
        <mxCell id="wBBZ4UBOatjyjH86mCXS-1" value="Generate Sample Text" style="whiteSpace=wrap;strokeWidth=2;verticalAlign=top;" vertex="1" parent="1">
          <mxGeometry x="20" y="20" width="299" height="363" as="geometry" />
        </mxCell>
        <mxCell id="wBBZ4UBOatjyjH86mCXS-2" value="Generate Token" style="whiteSpace=wrap;strokeWidth=2;" vertex="1" parent="wBBZ4UBOatjyjH86mCXS-1">
          <mxGeometry x="90" y="117" width="128" height="34" as="geometry" />
        </mxCell>
        <mxCell id="wBBZ4UBOatjyjH86mCXS-3" value="Initialize Context" style="whiteSpace=wrap;strokeWidth=2;" vertex="1" parent="wBBZ4UBOatjyjH86mCXS-1">
          <mxGeometry x="84" y="33" width="139" height="34" as="geometry" />
        </mxCell>
        <mxCell id="wBBZ4UBOatjyjH86mCXS-4" value="Update Context" style="whiteSpace=wrap;strokeWidth=2;" vertex="1" parent="wBBZ4UBOatjyjH86mCXS-1">
          <mxGeometry x="90" y="220" width="128" height="34" as="geometry" />
        </mxCell>
        <mxCell id="wBBZ4UBOatjyjH86mCXS-5" value="Decode Generated Sequence" style="whiteSpace=wrap;strokeWidth=2;" vertex="1" parent="wBBZ4UBOatjyjH86mCXS-1">
          <mxGeometry x="43" y="304" width="221" height="34" as="geometry" />
        </mxCell>
        <mxCell id="wBBZ4UBOatjyjH86mCXS-6" value="" style="curved=1;startArrow=none;endArrow=block;exitX=0.5;exitY=1;entryX=0.5;entryY=0;rounded=0;" edge="1" parent="wBBZ4UBOatjyjH86mCXS-1" source="wBBZ4UBOatjyjH86mCXS-3" target="wBBZ4UBOatjyjH86mCXS-2">
          <mxGeometry relative="1" as="geometry">
            <Array as="points" />
          </mxGeometry>
        </mxCell>
        <mxCell id="wBBZ4UBOatjyjH86mCXS-7" value="" style="curved=1;startArrow=none;endArrow=block;exitX=0.33;exitY=1;entryX=0.33;entryY=0;rounded=0;" edge="1" parent="wBBZ4UBOatjyjH86mCXS-1" source="wBBZ4UBOatjyjH86mCXS-2" target="wBBZ4UBOatjyjH86mCXS-4">
          <mxGeometry relative="1" as="geometry">
            <Array as="points">
              <mxPoint x="91" y="186" />
            </Array>
          </mxGeometry>
        </mxCell>
        <mxCell id="wBBZ4UBOatjyjH86mCXS-8" value="Next Token" style="curved=1;startArrow=none;endArrow=block;exitX=0.61;exitY=0;entryX=0.61;entryY=1;rounded=0;" edge="1" parent="wBBZ4UBOatjyjH86mCXS-1" source="wBBZ4UBOatjyjH86mCXS-4" target="wBBZ4UBOatjyjH86mCXS-2">
          <mxGeometry relative="1" as="geometry">
            <Array as="points">
              <mxPoint x="197" y="186" />
            </Array>
          </mxGeometry>
        </mxCell>
        <mxCell id="wBBZ4UBOatjyjH86mCXS-9" value="" style="curved=1;startArrow=none;endArrow=block;exitX=0.5;exitY=1;entryX=0.5;entryY=0;rounded=0;" edge="1" parent="wBBZ4UBOatjyjH86mCXS-1" source="wBBZ4UBOatjyjH86mCXS-4" target="wBBZ4UBOatjyjH86mCXS-5">
          <mxGeometry relative="1" as="geometry">
            <Array as="points" />
          </mxGeometry>
        </mxCell>
        <mxCell id="wBBZ4UBOatjyjH86mCXS-10" value="Estimate Loss" style="whiteSpace=wrap;strokeWidth=2;verticalAlign=top;" vertex="1" parent="1">
          <mxGeometry x="47" y="433" width="246" height="279" as="geometry" />
        </mxCell>
        <mxCell id="wBBZ4UBOatjyjH86mCXS-11" value="Forward Pass" style="whiteSpace=wrap;strokeWidth=2;" vertex="1" parent="wBBZ4UBOatjyjH86mCXS-10">
          <mxGeometry x="92" y="33" width="108" height="34" as="geometry" />
        </mxCell>
        <mxCell id="wBBZ4UBOatjyjH86mCXS-12" value="Get Batch" style="whiteSpace=wrap;strokeWidth=2;" vertex="1" parent="wBBZ4UBOatjyjH86mCXS-10">
          <mxGeometry x="103" y="220" width="86" height="34" as="geometry" />
        </mxCell>
        <mxCell id="wBBZ4UBOatjyjH86mCXS-13" value="Compute Loss" style="whiteSpace=wrap;strokeWidth=2;" vertex="1" parent="wBBZ4UBOatjyjH86mCXS-10">
          <mxGeometry x="43" y="117" width="114" height="34" as="geometry" />
        </mxCell>
        <mxCell id="wBBZ4UBOatjyjH86mCXS-14" value="" style="curved=1;startArrow=none;endArrow=block;exitX=0.36;exitY=-12.15;entryX=0.42;entryY=-11.15;rounded=0;" edge="1" parent="wBBZ4UBOatjyjH86mCXS-10" source="wBBZ4UBOatjyjH86mCXS-12" target="wBBZ4UBOatjyjH86mCXS-11">
          <mxGeometry relative="1" as="geometry">
            <Array as="points">
              <mxPoint x="192" y="186" />
              <mxPoint x="192" y="92" />
            </Array>
          </mxGeometry>
        </mxCell>
        <mxCell id="wBBZ4UBOatjyjH86mCXS-15" value="" style="curved=1;startArrow=none;endArrow=block;exitX=0.08;exitY=-11.15;entryX=0.26;entryY=-12.15;rounded=0;" edge="1" parent="wBBZ4UBOatjyjH86mCXS-10" source="wBBZ4UBOatjyjH86mCXS-11" target="wBBZ4UBOatjyjH86mCXS-13">
          <mxGeometry relative="1" as="geometry">
            <Array as="points">
              <mxPoint x="100" y="92" />
            </Array>
          </mxGeometry>
        </mxCell>
        <mxCell id="wBBZ4UBOatjyjH86mCXS-16" value="Next Iteration" style="curved=1;startArrow=none;endArrow=block;exitX=0.26;exitY=-11.15;entryX=0.01;entryY=-12.15;rounded=0;" edge="1" parent="wBBZ4UBOatjyjH86mCXS-10" source="wBBZ4UBOatjyjH86mCXS-13" target="wBBZ4UBOatjyjH86mCXS-12">
          <mxGeometry relative="1" as="geometry">
            <Array as="points">
              <mxPoint x="100" y="186" />
            </Array>
          </mxGeometry>
        </mxCell>
        <mxCell id="wBBZ4UBOatjyjH86mCXS-17" value="Train Model" style="whiteSpace=wrap;strokeWidth=2;verticalAlign=top;" vertex="1" parent="1">
          <mxGeometry x="967" y="350" width="1266" height="234" as="geometry" />
        </mxCell>
        <mxCell id="wBBZ4UBOatjyjH86mCXS-18" value="Forward Pass" style="whiteSpace=wrap;strokeWidth=2;" vertex="1" parent="1">
          <mxGeometry x="1040" y="395" width="108" height="34" as="geometry" />
        </mxCell>
        <mxCell id="wBBZ4UBOatjyjH86mCXS-19" value="Get Batch" style="whiteSpace=wrap;strokeWidth=2;" vertex="1" parent="1">
          <mxGeometry x="2079" y="421" width="86" height="34" as="geometry" />
        </mxCell>
        <mxCell id="wBBZ4UBOatjyjH86mCXS-20" value="Compute Loss" style="whiteSpace=wrap;strokeWidth=2;" vertex="1" parent="1">
          <mxGeometry x="1287" y="421" width="114" height="34" as="geometry" />
        </mxCell>
        <mxCell id="wBBZ4UBOatjyjH86mCXS-21" value="Backward Pass" style="whiteSpace=wrap;strokeWidth=2;" vertex="1" parent="1">
          <mxGeometry x="1492" y="421" width="118" height="34" as="geometry" />
        </mxCell>
        <mxCell id="wBBZ4UBOatjyjH86mCXS-22" value="Update Model Parameters" style="whiteSpace=wrap;strokeWidth=2;" vertex="1" parent="1">
          <mxGeometry x="1660" y="421" width="200" height="34" as="geometry" />
        </mxCell>
        <mxCell id="wBBZ4UBOatjyjH86mCXS-23" value="Estimate Loss" style="whiteSpace=wrap;strokeWidth=2;" vertex="1" parent="1">
          <mxGeometry x="1704" y="505" width="112" height="34" as="geometry" />
        </mxCell>
        <mxCell id="wBBZ4UBOatjyjH86mCXS-24" value="Train Model" style="whiteSpace=wrap;strokeWidth=2;" vertex="1" parent="1">
          <mxGeometry x="1502" y="515" width="98" height="34" as="geometry" />
        </mxCell>
        <mxCell id="wBBZ4UBOatjyjH86mCXS-25" value="Start" style="whiteSpace=wrap;strokeWidth=2;" vertex="1" parent="1">
          <mxGeometry x="145" y="762" width="50" height="34" as="geometry" />
        </mxCell>
        <mxCell id="wBBZ4UBOatjyjH86mCXS-26" value="Load and Preprocess Data" style="whiteSpace=wrap;strokeWidth=2;" vertex="1" parent="1">
          <mxGeometry x="369" y="762" width="199" height="34" as="geometry" />
        </mxCell>
        <mxCell id="wBBZ4UBOatjyjH86mCXS-27" value="Split Data into Train and Validation Sets" style="whiteSpace=wrap;strokeWidth=2;" vertex="1" parent="1">
          <mxGeometry x="618" y="762" width="299" height="34" as="geometry" />
        </mxCell>
        <mxCell id="wBBZ4UBOatjyjH86mCXS-28" value="Initialize LionHeart Config" style="whiteSpace=wrap;strokeWidth=2;" vertex="1" parent="1">
          <mxGeometry x="992" y="762" width="203" height="34" as="geometry" />
        </mxCell>
        <mxCell id="wBBZ4UBOatjyjH86mCXS-29" value="Initialize Language Model" style="whiteSpace=wrap;strokeWidth=2;" vertex="1" parent="1">
          <mxGeometry x="1245" y="762" width="197" height="34" as="geometry" />
        </mxCell>
        <mxCell id="wBBZ4UBOatjyjH86mCXS-30" value="Save Model" style="whiteSpace=wrap;strokeWidth=2;" vertex="1" parent="1">
          <mxGeometry x="1713" y="619" width="95" height="34" as="geometry" />
        </mxCell>
        <mxCell id="wBBZ4UBOatjyjH86mCXS-31" value="Generate Sample Text" style="whiteSpace=wrap;strokeWidth=2;" vertex="1" parent="1">
          <mxGeometry x="2035" y="619" width="173" height="34" as="geometry" />
        </mxCell>
        <mxCell id="wBBZ4UBOatjyjH86mCXS-32" value="End" style="whiteSpace=wrap;strokeWidth=2;" vertex="1" parent="1">
          <mxGeometry x="2283" y="619" width="41" height="34" as="geometry" />
        </mxCell>
        <mxCell id="wBBZ4UBOatjyjH86mCXS-33" value="" style="curved=1;startArrow=none;endArrow=block;exitX=0.99;exitY=0.5;entryX=0;entryY=0.5;rounded=0;" edge="1" parent="1" source="wBBZ4UBOatjyjH86mCXS-25" target="wBBZ4UBOatjyjH86mCXS-26">
          <mxGeometry relative="1" as="geometry">
            <Array as="points" />
          </mxGeometry>
        </mxCell>
        <mxCell id="wBBZ4UBOatjyjH86mCXS-34" value="" style="curved=1;startArrow=none;endArrow=block;exitX=1;exitY=0.5;entryX=0;entryY=0.5;rounded=0;" edge="1" parent="1" source="wBBZ4UBOatjyjH86mCXS-26" target="wBBZ4UBOatjyjH86mCXS-27">
          <mxGeometry relative="1" as="geometry">
            <Array as="points" />
          </mxGeometry>
        </mxCell>
        <mxCell id="wBBZ4UBOatjyjH86mCXS-35" value="" style="curved=1;startArrow=none;endArrow=block;exitX=1;exitY=0.5;entryX=0;entryY=0.5;rounded=0;" edge="1" parent="1" source="wBBZ4UBOatjyjH86mCXS-27" target="wBBZ4UBOatjyjH86mCXS-28">
          <mxGeometry relative="1" as="geometry">
            <Array as="points" />
          </mxGeometry>
        </mxCell>
        <mxCell id="wBBZ4UBOatjyjH86mCXS-36" value="" style="curved=1;startArrow=none;endArrow=block;exitX=1;exitY=0.5;entryX=0;entryY=0.5;rounded=0;" edge="1" parent="1" source="wBBZ4UBOatjyjH86mCXS-28" target="wBBZ4UBOatjyjH86mCXS-29">
          <mxGeometry relative="1" as="geometry">
            <Array as="points" />
          </mxGeometry>
        </mxCell>
        <mxCell id="wBBZ4UBOatjyjH86mCXS-37" value="" style="curved=1;startArrow=none;endArrow=block;exitX=0.54;exitY=0;entryX=0;entryY=0.51;rounded=0;" edge="1" parent="1" source="wBBZ4UBOatjyjH86mCXS-29" target="wBBZ4UBOatjyjH86mCXS-24">
          <mxGeometry relative="1" as="geometry">
            <Array as="points">
              <mxPoint x="1467" y="532" />
            </Array>
          </mxGeometry>
        </mxCell>
        <mxCell id="wBBZ4UBOatjyjH86mCXS-38" value="" style="curved=1;startArrow=none;endArrow=block;exitX=1;exitY=0.78;entryX=0.24;entryY=0.01;rounded=0;" edge="1" parent="1" source="wBBZ4UBOatjyjH86mCXS-24" target="wBBZ4UBOatjyjH86mCXS-30">
          <mxGeometry relative="1" as="geometry">
            <Array as="points">
              <mxPoint x="1635" y="548" />
            </Array>
          </mxGeometry>
        </mxCell>
        <mxCell id="wBBZ4UBOatjyjH86mCXS-39" value="" style="curved=1;startArrow=none;endArrow=block;exitX=0.99;exitY=0.51;entryX=0;entryY=0.51;rounded=0;" edge="1" parent="1" source="wBBZ4UBOatjyjH86mCXS-30" target="wBBZ4UBOatjyjH86mCXS-31">
          <mxGeometry relative="1" as="geometry">
            <Array as="points" />
          </mxGeometry>
        </mxCell>
        <mxCell id="wBBZ4UBOatjyjH86mCXS-40" value="" style="curved=1;startArrow=none;endArrow=block;exitX=1;exitY=0.51;entryX=0.01;entryY=0.51;rounded=0;" edge="1" parent="1" source="wBBZ4UBOatjyjH86mCXS-31" target="wBBZ4UBOatjyjH86mCXS-32">
          <mxGeometry relative="1" as="geometry">
            <Array as="points" />
          </mxGeometry>
        </mxCell>
        <mxCell id="wBBZ4UBOatjyjH86mCXS-41" value="" style="curved=1;startArrow=none;endArrow=block;exitX=0;exitY=0.13;entryX=1;entryY=0.18;rounded=0;" edge="1" parent="1" source="wBBZ4UBOatjyjH86mCXS-19" target="wBBZ4UBOatjyjH86mCXS-18">
          <mxGeometry relative="1" as="geometry">
            <Array as="points">
              <mxPoint x="1948" y="386" />
              <mxPoint x="1220" y="386" />
            </Array>
          </mxGeometry>
        </mxCell>
        <mxCell id="wBBZ4UBOatjyjH86mCXS-42" value="" style="curved=1;startArrow=none;endArrow=block;exitX=1;exitY=0.83;entryX=0;entryY=0.51;rounded=0;" edge="1" parent="1" source="wBBZ4UBOatjyjH86mCXS-18" target="wBBZ4UBOatjyjH86mCXS-20">
          <mxGeometry relative="1" as="geometry">
            <Array as="points">
              <mxPoint x="1220" y="438" />
            </Array>
          </mxGeometry>
        </mxCell>
        <mxCell id="wBBZ4UBOatjyjH86mCXS-43" value="" style="curved=1;startArrow=none;endArrow=block;exitX=0.99;exitY=0.51;entryX=0;entryY=0.51;rounded=0;" edge="1" parent="1" source="wBBZ4UBOatjyjH86mCXS-20" target="wBBZ4UBOatjyjH86mCXS-21">
          <mxGeometry relative="1" as="geometry">
            <Array as="points" />
          </mxGeometry>
        </mxCell>
        <mxCell id="wBBZ4UBOatjyjH86mCXS-44" value="" style="curved=1;startArrow=none;endArrow=block;exitX=1;exitY=0.51;entryX=0;entryY=0.51;rounded=0;" edge="1" parent="1" source="wBBZ4UBOatjyjH86mCXS-21" target="wBBZ4UBOatjyjH86mCXS-22">
          <mxGeometry relative="1" as="geometry">
            <Array as="points" />
          </mxGeometry>
        </mxCell>
        <mxCell id="wBBZ4UBOatjyjH86mCXS-45" value="Next Iteration" style="curved=1;startArrow=none;endArrow=block;exitX=1;exitY=0.51;entryX=0;entryY=0.51;rounded=0;" edge="1" parent="1" source="wBBZ4UBOatjyjH86mCXS-22" target="wBBZ4UBOatjyjH86mCXS-19">
          <mxGeometry relative="1" as="geometry">
            <Array as="points" />
          </mxGeometry>
        </mxCell>
        <mxCell id="wBBZ4UBOatjyjH86mCXS-46" value="" style="curved=1;startArrow=none;endArrow=block;exitX=1;exitY=0.34;entryX=0;entryY=0.51;rounded=0;" edge="1" parent="1" source="wBBZ4UBOatjyjH86mCXS-24" target="wBBZ4UBOatjyjH86mCXS-23">
          <mxGeometry relative="1" as="geometry">
            <Array as="points">
              <mxPoint x="1635" y="522" />
            </Array>
          </mxGeometry>
        </mxCell>
        <mxCell id="wBBZ4UBOatjyjH86mCXS-47" value="Continue Training" style="curved=1;startArrow=none;endArrow=block;exitX=1;exitY=0.51;entryX=0.09;entryY=1.01;rounded=0;" edge="1" parent="1" source="wBBZ4UBOatjyjH86mCXS-23" target="wBBZ4UBOatjyjH86mCXS-19">
          <mxGeometry relative="1" as="geometry">
            <Array as="points">
              <mxPoint x="1948" y="522" />
            </Array>
          </mxGeometry>
        </mxCell>
      </root>
    </mxGraphModel>
  </diagram>
  <diagram id="UEG-P-BjOtfWKQ76-0St" name="tiny_llm_trainer_vqa">
    <mxGraphModel dx="1420" dy="840" grid="1" gridSize="10" guides="1" tooltips="1" connect="1" arrows="1" fold="1" page="1" pageScale="1" pageWidth="100" pageHeight="100" math="0" shadow="0">
      <root>
        <mxCell id="0" />
        <mxCell id="1" parent="0" />
        <mxCell id="aWTPtF0Ug_By7b4ZYSf--1" value="Evaluate" style="whiteSpace=wrap;strokeWidth=2;verticalAlign=top;" vertex="1" parent="1">
          <mxGeometry x="20" y="20" width="291" height="195" as="geometry" />
        </mxCell>
        <mxCell id="aWTPtF0Ug_By7b4ZYSf--2" value="Compute Loss and Accuracy" style="whiteSpace=wrap;strokeWidth=2;" vertex="1" parent="aWTPtF0Ug_By7b4ZYSf--1">
          <mxGeometry x="43" y="33" width="213" height="34" as="geometry" />
        </mxCell>
        <mxCell id="aWTPtF0Ug_By7b4ZYSf--3" value="Process Batch" style="whiteSpace=wrap;strokeWidth=2;" vertex="1" parent="aWTPtF0Ug_By7b4ZYSf--1">
          <mxGeometry x="93" y="136" width="113" height="34" as="geometry" />
        </mxCell>
        <mxCell id="aWTPtF0Ug_By7b4ZYSf--4" value="" style="curved=1;startArrow=none;endArrow=block;exitX=0.68;exitY=0;entryX=0.59;entryY=1;rounded=0;" edge="1" parent="aWTPtF0Ug_By7b4ZYSf--1" source="aWTPtF0Ug_By7b4ZYSf--3" target="aWTPtF0Ug_By7b4ZYSf--2">
          <mxGeometry relative="1" as="geometry">
            <Array as="points">
              <mxPoint x="210" y="102" />
            </Array>
          </mxGeometry>
        </mxCell>
        <mxCell id="aWTPtF0Ug_By7b4ZYSf--5" value="Next Batch" style="curved=1;startArrow=none;endArrow=block;exitX=0.44;exitY=1;entryX=0.38;entryY=0;rounded=0;" edge="1" parent="aWTPtF0Ug_By7b4ZYSf--1" source="aWTPtF0Ug_By7b4ZYSf--2" target="aWTPtF0Ug_By7b4ZYSf--3">
          <mxGeometry relative="1" as="geometry">
            <Array as="points">
              <mxPoint x="108" y="102" />
            </Array>
          </mxGeometry>
        </mxCell>
        <mxCell id="aWTPtF0Ug_By7b4ZYSf--6" value="Train Epoch" style="whiteSpace=wrap;strokeWidth=2;verticalAlign=top;" vertex="1" parent="1">
          <mxGeometry x="38" y="265" width="255" height="363" as="geometry" />
        </mxCell>
        <mxCell id="aWTPtF0Ug_By7b4ZYSf--7" value="Compute Loss" style="whiteSpace=wrap;strokeWidth=2;" vertex="1" parent="aWTPtF0Ug_By7b4ZYSf--6">
          <mxGeometry x="94" y="33" width="114" height="34" as="geometry" />
        </mxCell>
        <mxCell id="aWTPtF0Ug_By7b4ZYSf--8" value="Process Batch" style="whiteSpace=wrap;strokeWidth=2;" vertex="1" parent="aWTPtF0Ug_By7b4ZYSf--6">
          <mxGeometry x="95" y="304" width="113" height="34" as="geometry" />
        </mxCell>
        <mxCell id="aWTPtF0Ug_By7b4ZYSf--9" value="Backpropagate" style="whiteSpace=wrap;strokeWidth=2;" vertex="1" parent="aWTPtF0Ug_By7b4ZYSf--6">
          <mxGeometry x="43" y="117" width="121" height="34" as="geometry" />
        </mxCell>
        <mxCell id="aWTPtF0Ug_By7b4ZYSf--10" value="Update Model" style="whiteSpace=wrap;strokeWidth=2;" vertex="1" parent="aWTPtF0Ug_By7b4ZYSf--6">
          <mxGeometry x="47" y="201" width="114" height="34" as="geometry" />
        </mxCell>
        <mxCell id="aWTPtF0Ug_By7b4ZYSf--11" value="" style="curved=1;startArrow=none;endArrow=block;exitX=0.48;exitY=-7.21;entryX=0.51;entryY=-6.21;rounded=0;" edge="1" parent="aWTPtF0Ug_By7b4ZYSf--6" source="aWTPtF0Ug_By7b4ZYSf--8" target="aWTPtF0Ug_By7b4ZYSf--7">
          <mxGeometry relative="1" as="geometry">
            <Array as="points">
              <mxPoint x="199" y="270" />
              <mxPoint x="199" y="92" />
            </Array>
          </mxGeometry>
        </mxCell>
        <mxCell id="aWTPtF0Ug_By7b4ZYSf--12" value="" style="curved=1;startArrow=none;endArrow=block;exitX=0.17;exitY=-6.21;entryX=0.35;entryY=-7.21;rounded=0;" edge="1" parent="aWTPtF0Ug_By7b4ZYSf--6" source="aWTPtF0Ug_By7b4ZYSf--7" target="aWTPtF0Ug_By7b4ZYSf--9">
          <mxGeometry relative="1" as="geometry">
            <Array as="points">
              <mxPoint x="104" y="92" />
            </Array>
          </mxGeometry>
        </mxCell>
        <mxCell id="aWTPtF0Ug_By7b4ZYSf--13" value="" style="curved=1;startArrow=none;endArrow=block;exitX=0.35;exitY=-6.21;entryX=0.34;entryY=-7.21;rounded=0;" edge="1" parent="aWTPtF0Ug_By7b4ZYSf--6" source="aWTPtF0Ug_By7b4ZYSf--9" target="aWTPtF0Ug_By7b4ZYSf--10">
          <mxGeometry relative="1" as="geometry">
            <Array as="points" />
          </mxGeometry>
        </mxCell>
        <mxCell id="aWTPtF0Ug_By7b4ZYSf--14" value="Next Batch" style="curved=1;startArrow=none;endArrow=block;exitX=0.34;exitY=-6.21;entryX=0.2;entryY=-7.21;rounded=0;" edge="1" parent="aWTPtF0Ug_By7b4ZYSf--6" source="aWTPtF0Ug_By7b4ZYSf--10" target="aWTPtF0Ug_By7b4ZYSf--8">
          <mxGeometry relative="1" as="geometry">
            <Array as="points">
              <mxPoint x="104" y="270" />
            </Array>
          </mxGeometry>
        </mxCell>
        <mxCell id="aWTPtF0Ug_By7b4ZYSf--15" value="Train VQA Model" style="whiteSpace=wrap;strokeWidth=2;verticalAlign=top;" vertex="1" parent="1">
          <mxGeometry x="903" y="747" width="1288" height="181" as="geometry" />
        </mxCell>
        <mxCell id="aWTPtF0Ug_By7b4ZYSf--16" value="Train Epoch" style="whiteSpace=wrap;strokeWidth=2;" vertex="1" parent="1">
          <mxGeometry x="1010" y="834" width="98" height="34" as="geometry" />
        </mxCell>
        <mxCell id="aWTPtF0Ug_By7b4ZYSf--17" value="Train VQA Model" style="whiteSpace=wrap;strokeWidth=2;" vertex="1" parent="1">
          <mxGeometry x="2035" y="809" width="131" height="34" as="geometry" />
        </mxCell>
        <mxCell id="aWTPtF0Ug_By7b4ZYSf--18" value="Evaluate" style="whiteSpace=wrap;strokeWidth=2;" vertex="1" parent="1">
          <mxGeometry x="1279" y="782" width="77" height="34" as="geometry" />
        </mxCell>
        <mxCell id="aWTPtF0Ug_By7b4ZYSf--19" value="Update Learning Rate" style="whiteSpace=wrap;strokeWidth=2;" vertex="1" parent="1">
          <mxGeometry x="1510" y="782" width="171" height="34" as="geometry" />
        </mxCell>
        <mxCell id="aWTPtF0Ug_By7b4ZYSf--20" value="Check Early Stopping" style="whiteSpace=wrap;strokeWidth=2;" vertex="1" parent="1">
          <mxGeometry x="1759" y="808" width="165" height="34" as="geometry" />
        </mxCell>
        <mxCell id="aWTPtF0Ug_By7b4ZYSf--21" value="Start" style="whiteSpace=wrap;strokeWidth=2;" vertex="1" parent="1">
          <mxGeometry x="140" y="678" width="50" height="34" as="geometry" />
        </mxCell>
        <mxCell id="aWTPtF0Ug_By7b4ZYSf--22" value="Build Vocabulary" style="whiteSpace=wrap;strokeWidth=2;" vertex="1" parent="1">
          <mxGeometry x="361" y="678" width="134" height="34" as="geometry" />
        </mxCell>
        <mxCell id="aWTPtF0Ug_By7b4ZYSf--23" value="Load Datasets" style="whiteSpace=wrap;strokeWidth=2;" vertex="1" parent="1">
          <mxGeometry x="545" y="678" width="115" height="34" as="geometry" />
        </mxCell>
        <mxCell id="aWTPtF0Ug_By7b4ZYSf--24" value="Combine Datasets" style="whiteSpace=wrap;strokeWidth=2;" vertex="1" parent="1">
          <mxGeometry x="710" y="678" width="143" height="34" as="geometry" />
        </mxCell>
        <mxCell id="aWTPtF0Ug_By7b4ZYSf--25" value="Split into Train and Validation Sets" style="whiteSpace=wrap;strokeWidth=2;" vertex="1" parent="1">
          <mxGeometry x="928" y="678" width="261" height="34" as="geometry" />
        </mxCell>
        <mxCell id="aWTPtF0Ug_By7b4ZYSf--26" value="Create DataLoaders" style="whiteSpace=wrap;strokeWidth=2;" vertex="1" parent="1">
          <mxGeometry x="1239" y="678" width="156" height="34" as="geometry" />
        </mxCell>
        <mxCell id="aWTPtF0Ug_By7b4ZYSf--27" value="Initialize VQA Model" style="whiteSpace=wrap;strokeWidth=2;" vertex="1" parent="1">
          <mxGeometry x="1516" y="678" width="158" height="34" as="geometry" />
        </mxCell>
        <mxCell id="aWTPtF0Ug_By7b4ZYSf--28" value="Set up Training Configuration" style="whiteSpace=wrap;strokeWidth=2;" vertex="1" parent="1">
          <mxGeometry x="1730" y="678" width="223" height="34" as="geometry" />
        </mxCell>
        <mxCell id="aWTPtF0Ug_By7b4ZYSf--29" value="Save Best Model" style="whiteSpace=wrap;strokeWidth=2;" vertex="1" parent="1">
          <mxGeometry x="2241" y="809" width="130" height="34" as="geometry" />
        </mxCell>
        <mxCell id="aWTPtF0Ug_By7b4ZYSf--30" value="Save Training History" style="whiteSpace=wrap;strokeWidth=2;" vertex="1" parent="1">
          <mxGeometry x="2422" y="809" width="164" height="34" as="geometry" />
        </mxCell>
        <mxCell id="aWTPtF0Ug_By7b4ZYSf--31" value="End" style="whiteSpace=wrap;strokeWidth=2;" vertex="1" parent="1">
          <mxGeometry x="2636" y="809" width="41" height="34" as="geometry" />
        </mxCell>
        <mxCell id="aWTPtF0Ug_By7b4ZYSf--32" value="" style="curved=1;startArrow=none;endArrow=block;exitX=1.01;exitY=0.5;entryX=0;entryY=0.5;rounded=0;" edge="1" parent="1" source="aWTPtF0Ug_By7b4ZYSf--21" target="aWTPtF0Ug_By7b4ZYSf--22">
          <mxGeometry relative="1" as="geometry">
            <Array as="points" />
          </mxGeometry>
        </mxCell>
        <mxCell id="aWTPtF0Ug_By7b4ZYSf--33" value="" style="curved=1;startArrow=none;endArrow=block;exitX=1;exitY=0.5;entryX=0;entryY=0.5;rounded=0;" edge="1" parent="1" source="aWTPtF0Ug_By7b4ZYSf--22" target="aWTPtF0Ug_By7b4ZYSf--23">
          <mxGeometry relative="1" as="geometry">
            <Array as="points" />
          </mxGeometry>
        </mxCell>
        <mxCell id="aWTPtF0Ug_By7b4ZYSf--34" value="" style="curved=1;startArrow=none;endArrow=block;exitX=1;exitY=0.5;entryX=0;entryY=0.5;rounded=0;" edge="1" parent="1" source="aWTPtF0Ug_By7b4ZYSf--23" target="aWTPtF0Ug_By7b4ZYSf--24">
          <mxGeometry relative="1" as="geometry">
            <Array as="points" />
          </mxGeometry>
        </mxCell>
        <mxCell id="aWTPtF0Ug_By7b4ZYSf--35" value="" style="curved=1;startArrow=none;endArrow=block;exitX=1;exitY=0.5;entryX=0;entryY=0.5;rounded=0;" edge="1" parent="1" source="aWTPtF0Ug_By7b4ZYSf--24" target="aWTPtF0Ug_By7b4ZYSf--25">
          <mxGeometry relative="1" as="geometry">
            <Array as="points" />
          </mxGeometry>
        </mxCell>
        <mxCell id="aWTPtF0Ug_By7b4ZYSf--36" value="" style="curved=1;startArrow=none;endArrow=block;exitX=1;exitY=0.5;entryX=0;entryY=0.5;rounded=0;" edge="1" parent="1" source="aWTPtF0Ug_By7b4ZYSf--25" target="aWTPtF0Ug_By7b4ZYSf--26">
          <mxGeometry relative="1" as="geometry">
            <Array as="points" />
          </mxGeometry>
        </mxCell>
        <mxCell id="aWTPtF0Ug_By7b4ZYSf--37" value="" style="curved=1;startArrow=none;endArrow=block;exitX=1;exitY=0.5;entryX=0;entryY=0.5;rounded=0;" edge="1" parent="1" source="aWTPtF0Ug_By7b4ZYSf--26" target="aWTPtF0Ug_By7b4ZYSf--27">
          <mxGeometry relative="1" as="geometry">
            <Array as="points" />
          </mxGeometry>
        </mxCell>
        <mxCell id="aWTPtF0Ug_By7b4ZYSf--38" value="" style="curved=1;startArrow=none;endArrow=block;exitX=1;exitY=0.5;entryX=0;entryY=0.5;rounded=0;" edge="1" parent="1" source="aWTPtF0Ug_By7b4ZYSf--27" target="aWTPtF0Ug_By7b4ZYSf--28">
          <mxGeometry relative="1" as="geometry">
            <Array as="points" />
          </mxGeometry>
        </mxCell>
        <mxCell id="aWTPtF0Ug_By7b4ZYSf--39" value="" style="curved=1;startArrow=none;endArrow=block;exitX=0.66;exitY=1;entryX=0.26;entryY=0.01;rounded=0;" edge="1" parent="1" source="aWTPtF0Ug_By7b4ZYSf--28" target="aWTPtF0Ug_By7b4ZYSf--17">
          <mxGeometry relative="1" as="geometry">
            <Array as="points">
              <mxPoint x="1994" y="768" />
            </Array>
          </mxGeometry>
        </mxCell>
        <mxCell id="aWTPtF0Ug_By7b4ZYSf--40" value="" style="curved=1;startArrow=none;endArrow=block;exitX=1;exitY=0.51;entryX=0;entryY=0.51;rounded=0;" edge="1" parent="1" source="aWTPtF0Ug_By7b4ZYSf--17" target="aWTPtF0Ug_By7b4ZYSf--29">
          <mxGeometry relative="1" as="geometry">
            <Array as="points" />
          </mxGeometry>
        </mxCell>
        <mxCell id="aWTPtF0Ug_By7b4ZYSf--41" value="" style="curved=1;startArrow=none;endArrow=block;exitX=1;exitY=0.51;entryX=0;entryY=0.51;rounded=0;" edge="1" parent="1" source="aWTPtF0Ug_By7b4ZYSf--29" target="aWTPtF0Ug_By7b4ZYSf--30">
          <mxGeometry relative="1" as="geometry">
            <Array as="points" />
          </mxGeometry>
        </mxCell>
        <mxCell id="aWTPtF0Ug_By7b4ZYSf--42" value="" style="curved=1;startArrow=none;endArrow=block;exitX=1;exitY=0.51;entryX=0;entryY=0.51;rounded=0;" edge="1" parent="1" source="aWTPtF0Ug_By7b4ZYSf--30" target="aWTPtF0Ug_By7b4ZYSf--31">
          <mxGeometry relative="1" as="geometry">
            <Array as="points" />
          </mxGeometry>
        </mxCell>
        <mxCell id="aWTPtF0Ug_By7b4ZYSf--43" value="" style="curved=1;startArrow=none;endArrow=block;exitX=0.29;exitY=1.01;entryX=1;entryY=0.88;rounded=0;" edge="1" parent="1" source="aWTPtF0Ug_By7b4ZYSf--17" target="aWTPtF0Ug_By7b4ZYSf--16">
          <mxGeometry relative="1" as="geometry">
            <Array as="points">
              <mxPoint x="1994" y="892" />
              <mxPoint x="1214" y="892" />
            </Array>
          </mxGeometry>
        </mxCell>
        <mxCell id="aWTPtF0Ug_By7b4ZYSf--44" value="" style="curved=1;startArrow=none;endArrow=block;exitX=1;exitY=0.02;entryX=0;entryY=0.5;rounded=0;" edge="1" parent="1" source="aWTPtF0Ug_By7b4ZYSf--16" target="aWTPtF0Ug_By7b4ZYSf--18">
          <mxGeometry relative="1" as="geometry">
            <Array as="points">
              <mxPoint x="1214" y="799" />
            </Array>
          </mxGeometry>
        </mxCell>
        <mxCell id="aWTPtF0Ug_By7b4ZYSf--45" value="" style="curved=1;startArrow=none;endArrow=block;exitX=1;exitY=0.5;entryX=0;entryY=0.5;rounded=0;" edge="1" parent="1" source="aWTPtF0Ug_By7b4ZYSf--18" target="aWTPtF0Ug_By7b4ZYSf--19">
          <mxGeometry relative="1" as="geometry">
            <Array as="points" />
          </mxGeometry>
        </mxCell>
        <mxCell id="aWTPtF0Ug_By7b4ZYSf--46" value="" style="curved=1;startArrow=none;endArrow=block;exitX=1;exitY=0.5;entryX=0;entryY=0.04;rounded=0;" edge="1" parent="1" source="aWTPtF0Ug_By7b4ZYSf--19" target="aWTPtF0Ug_By7b4ZYSf--20">
          <mxGeometry relative="1" as="geometry">
            <Array as="points">
              <mxPoint x="1705" y="799" />
            </Array>
          </mxGeometry>
        </mxCell>
        <mxCell id="aWTPtF0Ug_By7b4ZYSf--47" value="Continue" style="curved=1;startArrow=none;endArrow=block;exitX=0;exitY=0.96;entryX=1;entryY=0.5;rounded=0;" edge="1" parent="1" source="aWTPtF0Ug_By7b4ZYSf--20" target="aWTPtF0Ug_By7b4ZYSf--16">
          <mxGeometry relative="1" as="geometry">
            <Array as="points">
              <mxPoint x="1705" y="851" />
            </Array>
          </mxGeometry>
        </mxCell>
        <mxCell id="aWTPtF0Ug_By7b4ZYSf--48" value="Stop" style="curved=1;startArrow=none;endArrow=block;exitX=1;exitY=0.5;entryX=0;entryY=0.48;rounded=0;" edge="1" parent="1" source="aWTPtF0Ug_By7b4ZYSf--20" target="aWTPtF0Ug_By7b4ZYSf--17">
          <mxGeometry relative="1" as="geometry">
            <Array as="points">
              <mxPoint x="1994" y="825" />
            </Array>
          </mxGeometry>
        </mxCell>
      </root>
    </mxGraphModel>
  </diagram>
  <diagram name="tiny_llm_trainer_cvc" id="dE-BNG0Jtrwjen6QTJKu">
    <mxGraphModel dx="1420" dy="840" grid="1" gridSize="10" guides="1" tooltips="1" connect="1" arrows="1" fold="1" page="1" pageScale="1" pageWidth="100" pageHeight="100" math="0" shadow="0">
      <root>
        <mxCell id="0" />
        <mxCell id="1" parent="0" />
        <mxCell id="6UNrDVOiu8i8gjgRsSAC-1" value="Evaluate" style="whiteSpace=wrap;strokeWidth=2;verticalAlign=top;" vertex="1" parent="1">
          <mxGeometry x="45" y="20" width="205" height="195" as="geometry" />
        </mxCell>
        <mxCell id="6UNrDVOiu8i8gjgRsSAC-2" value="Compute Loss" style="whiteSpace=wrap;strokeWidth=2;" vertex="1" parent="6UNrDVOiu8i8gjgRsSAC-1">
          <mxGeometry x="56" y="33" width="114" height="34" as="geometry" />
        </mxCell>
        <mxCell id="6UNrDVOiu8i8gjgRsSAC-3" value="Process Batch" style="whiteSpace=wrap;strokeWidth=2;" vertex="1" parent="6UNrDVOiu8i8gjgRsSAC-1">
          <mxGeometry x="57" y="136" width="113" height="34" as="geometry" />
        </mxCell>
        <mxCell id="6UNrDVOiu8i8gjgRsSAC-4" value="" style="curved=1;startArrow=none;endArrow=block;exitX=0.38;exitY=0;entryX=0.39;entryY=1;rounded=0;" edge="1" parent="6UNrDVOiu8i8gjgRsSAC-1" source="6UNrDVOiu8i8gjgRsSAC-3" target="6UNrDVOiu8i8gjgRsSAC-2">
          <mxGeometry relative="1" as="geometry">
            <Array as="points">
              <mxPoint x="149" y="102" />
            </Array>
          </mxGeometry>
        </mxCell>
        <mxCell id="6UNrDVOiu8i8gjgRsSAC-5" value="Next Batch" style="curved=1;startArrow=none;endArrow=block;exitX=0.2;exitY=1;entryX=0.19;entryY=0;rounded=0;" edge="1" parent="6UNrDVOiu8i8gjgRsSAC-1" source="6UNrDVOiu8i8gjgRsSAC-2" target="6UNrDVOiu8i8gjgRsSAC-3">
          <mxGeometry relative="1" as="geometry">
            <Array as="points">
              <mxPoint x="84" y="102" />
            </Array>
          </mxGeometry>
        </mxCell>
        <mxCell id="6UNrDVOiu8i8gjgRsSAC-6" value="Train Epoch" style="whiteSpace=wrap;strokeWidth=2;verticalAlign=top;" vertex="1" parent="1">
          <mxGeometry x="20" y="265" width="255" height="363" as="geometry" />
        </mxCell>
        <mxCell id="6UNrDVOiu8i8gjgRsSAC-7" value="Compute Loss" style="whiteSpace=wrap;strokeWidth=2;" vertex="1" parent="6UNrDVOiu8i8gjgRsSAC-6">
          <mxGeometry x="94" y="33" width="114" height="34" as="geometry" />
        </mxCell>
        <mxCell id="6UNrDVOiu8i8gjgRsSAC-8" value="Process Batch" style="whiteSpace=wrap;strokeWidth=2;" vertex="1" parent="6UNrDVOiu8i8gjgRsSAC-6">
          <mxGeometry x="95" y="304" width="113" height="34" as="geometry" />
        </mxCell>
        <mxCell id="6UNrDVOiu8i8gjgRsSAC-9" value="Backpropagate" style="whiteSpace=wrap;strokeWidth=2;" vertex="1" parent="6UNrDVOiu8i8gjgRsSAC-6">
          <mxGeometry x="43" y="117" width="121" height="34" as="geometry" />
        </mxCell>
        <mxCell id="6UNrDVOiu8i8gjgRsSAC-10" value="Update Model" style="whiteSpace=wrap;strokeWidth=2;" vertex="1" parent="6UNrDVOiu8i8gjgRsSAC-6">
          <mxGeometry x="47" y="201" width="114" height="34" as="geometry" />
        </mxCell>
        <mxCell id="6UNrDVOiu8i8gjgRsSAC-11" value="" style="curved=1;startArrow=none;endArrow=block;exitX=0.64;exitY=-7.21;entryX=0.67;entryY=-6.21;rounded=0;" edge="1" parent="6UNrDVOiu8i8gjgRsSAC-6" source="6UNrDVOiu8i8gjgRsSAC-8" target="6UNrDVOiu8i8gjgRsSAC-7">
          <mxGeometry relative="1" as="geometry">
            <Array as="points">
              <mxPoint x="199" y="270" />
              <mxPoint x="199" y="92" />
            </Array>
          </mxGeometry>
        </mxCell>
        <mxCell id="6UNrDVOiu8i8gjgRsSAC-12" value="" style="curved=1;startArrow=none;endArrow=block;exitX=0.33;exitY=-6.21;entryX=0.5;entryY=-7.21;rounded=0;" edge="1" parent="6UNrDVOiu8i8gjgRsSAC-6" source="6UNrDVOiu8i8gjgRsSAC-7" target="6UNrDVOiu8i8gjgRsSAC-9">
          <mxGeometry relative="1" as="geometry">
            <Array as="points">
              <mxPoint x="104" y="92" />
            </Array>
          </mxGeometry>
        </mxCell>
        <mxCell id="6UNrDVOiu8i8gjgRsSAC-13" value="" style="curved=1;startArrow=none;endArrow=block;exitX=0.5;exitY=-6.21;entryX=0.5;entryY=-7.21;rounded=0;" edge="1" parent="6UNrDVOiu8i8gjgRsSAC-6" source="6UNrDVOiu8i8gjgRsSAC-9" target="6UNrDVOiu8i8gjgRsSAC-10">
          <mxGeometry relative="1" as="geometry">
            <Array as="points" />
          </mxGeometry>
        </mxCell>
        <mxCell id="6UNrDVOiu8i8gjgRsSAC-14" value="Next Batch" style="curved=1;startArrow=none;endArrow=block;exitX=0.5;exitY=-6.21;entryX=0.36;entryY=-7.21;rounded=0;" edge="1" parent="6UNrDVOiu8i8gjgRsSAC-6" source="6UNrDVOiu8i8gjgRsSAC-10" target="6UNrDVOiu8i8gjgRsSAC-8">
          <mxGeometry relative="1" as="geometry">
            <Array as="points">
              <mxPoint x="104" y="270" />
            </Array>
          </mxGeometry>
        </mxCell>
        <mxCell id="6UNrDVOiu8i8gjgRsSAC-15" value="Train TTS Model" style="whiteSpace=wrap;strokeWidth=2;verticalAlign=top;" vertex="1" parent="1">
          <mxGeometry x="509" y="747" width="1122" height="181" as="geometry" />
        </mxCell>
        <mxCell id="6UNrDVOiu8i8gjgRsSAC-16" value="Train Epoch" style="whiteSpace=wrap;strokeWidth=2;" vertex="1" parent="1">
          <mxGeometry x="549" y="834" width="98" height="34" as="geometry" />
        </mxCell>
        <mxCell id="6UNrDVOiu8i8gjgRsSAC-17" value="Train TTS Model" style="whiteSpace=wrap;strokeWidth=2;" vertex="1" parent="1">
          <mxGeometry x="1477" y="809" width="128" height="34" as="geometry" />
        </mxCell>
        <mxCell id="6UNrDVOiu8i8gjgRsSAC-18" value="Evaluate" style="whiteSpace=wrap;strokeWidth=2;" vertex="1" parent="1">
          <mxGeometry x="737" y="782" width="77" height="34" as="geometry" />
        </mxCell>
        <mxCell id="6UNrDVOiu8i8gjgRsSAC-19" value="Update Learning Rate" style="whiteSpace=wrap;strokeWidth=2;" vertex="1" parent="1">
          <mxGeometry x="952" y="782" width="171" height="34" as="geometry" />
        </mxCell>
        <mxCell id="6UNrDVOiu8i8gjgRsSAC-20" value="Check Early Stopping" style="whiteSpace=wrap;strokeWidth=2;" vertex="1" parent="1">
          <mxGeometry x="1201" y="808" width="165" height="34" as="geometry" />
        </mxCell>
        <mxCell id="6UNrDVOiu8i8gjgRsSAC-21" value="Start" style="whiteSpace=wrap;strokeWidth=2;" vertex="1" parent="1">
          <mxGeometry x="122" y="678" width="50" height="34" as="geometry" />
        </mxCell>
        <mxCell id="6UNrDVOiu8i8gjgRsSAC-22" value="Build Vocabulary" style="whiteSpace=wrap;strokeWidth=2;" vertex="1" parent="1">
          <mxGeometry x="325" y="678" width="134" height="34" as="geometry" />
        </mxCell>
        <mxCell id="6UNrDVOiu8i8gjgRsSAC-23" value="Create Datasets" style="whiteSpace=wrap;strokeWidth=2;" vertex="1" parent="1">
          <mxGeometry x="534" y="678" width="129" height="34" as="geometry" />
        </mxCell>
        <mxCell id="6UNrDVOiu8i8gjgRsSAC-24" value="Initialize Model" style="whiteSpace=wrap;strokeWidth=2;" vertex="1" parent="1">
          <mxGeometry x="713" y="678" width="125" height="34" as="geometry" />
        </mxCell>
        <mxCell id="6UNrDVOiu8i8gjgRsSAC-25" value="Create DataLoaders" style="whiteSpace=wrap;strokeWidth=2;" vertex="1" parent="1">
          <mxGeometry x="959" y="678" width="156" height="34" as="geometry" />
        </mxCell>
        <mxCell id="6UNrDVOiu8i8gjgRsSAC-26" value="Set up Training Configuration" style="whiteSpace=wrap;strokeWidth=2;" vertex="1" parent="1">
          <mxGeometry x="1172" y="678" width="223" height="34" as="geometry" />
        </mxCell>
        <mxCell id="6UNrDVOiu8i8gjgRsSAC-27" value="Save Best Model" style="whiteSpace=wrap;strokeWidth=2;" vertex="1" parent="1">
          <mxGeometry x="1681" y="809" width="130" height="34" as="geometry" />
        </mxCell>
        <mxCell id="6UNrDVOiu8i8gjgRsSAC-28" value="Save Training History" style="whiteSpace=wrap;strokeWidth=2;" vertex="1" parent="1">
          <mxGeometry x="1861" y="809" width="164" height="34" as="geometry" />
        </mxCell>
        <mxCell id="6UNrDVOiu8i8gjgRsSAC-29" value="End" style="whiteSpace=wrap;strokeWidth=2;" vertex="1" parent="1">
          <mxGeometry x="2075" y="809" width="41" height="34" as="geometry" />
        </mxCell>
        <mxCell id="6UNrDVOiu8i8gjgRsSAC-30" value="" style="curved=1;startArrow=none;endArrow=block;exitX=1.01;exitY=0.5;entryX=0;entryY=0.5;rounded=0;" edge="1" parent="1" source="6UNrDVOiu8i8gjgRsSAC-21" target="6UNrDVOiu8i8gjgRsSAC-22">
          <mxGeometry relative="1" as="geometry">
            <Array as="points" />
          </mxGeometry>
        </mxCell>
        <mxCell id="6UNrDVOiu8i8gjgRsSAC-31" value="" style="curved=1;startArrow=none;endArrow=block;exitX=1;exitY=0.5;entryX=0;entryY=0.5;rounded=0;" edge="1" parent="1" source="6UNrDVOiu8i8gjgRsSAC-22" target="6UNrDVOiu8i8gjgRsSAC-23">
          <mxGeometry relative="1" as="geometry">
            <Array as="points" />
          </mxGeometry>
        </mxCell>
        <mxCell id="6UNrDVOiu8i8gjgRsSAC-32" value="" style="curved=1;startArrow=none;endArrow=block;exitX=1;exitY=0.5;entryX=0;entryY=0.5;rounded=0;" edge="1" parent="1" source="6UNrDVOiu8i8gjgRsSAC-23" target="6UNrDVOiu8i8gjgRsSAC-24">
          <mxGeometry relative="1" as="geometry">
            <Array as="points" />
          </mxGeometry>
        </mxCell>
        <mxCell id="6UNrDVOiu8i8gjgRsSAC-33" value="" style="curved=1;startArrow=none;endArrow=block;exitX=1;exitY=0.5;entryX=0;entryY=0.5;rounded=0;" edge="1" parent="1" source="6UNrDVOiu8i8gjgRsSAC-24" target="6UNrDVOiu8i8gjgRsSAC-25">
          <mxGeometry relative="1" as="geometry">
            <Array as="points" />
          </mxGeometry>
        </mxCell>
        <mxCell id="6UNrDVOiu8i8gjgRsSAC-34" value="" style="curved=1;startArrow=none;endArrow=block;exitX=1;exitY=0.5;entryX=0;entryY=0.5;rounded=0;" edge="1" parent="1" source="6UNrDVOiu8i8gjgRsSAC-25" target="6UNrDVOiu8i8gjgRsSAC-26">
          <mxGeometry relative="1" as="geometry">
            <Array as="points" />
          </mxGeometry>
        </mxCell>
        <mxCell id="6UNrDVOiu8i8gjgRsSAC-35" value="" style="curved=1;startArrow=none;endArrow=block;exitX=0.66;exitY=1;entryX=0.26;entryY=0.01;rounded=0;" edge="1" parent="1" source="6UNrDVOiu8i8gjgRsSAC-26" target="6UNrDVOiu8i8gjgRsSAC-17">
          <mxGeometry relative="1" as="geometry">
            <Array as="points">
              <mxPoint x="1436" y="768" />
            </Array>
          </mxGeometry>
        </mxCell>
        <mxCell id="6UNrDVOiu8i8gjgRsSAC-36" value="" style="curved=1;startArrow=none;endArrow=block;exitX=1;exitY=0.51;entryX=0;entryY=0.51;rounded=0;" edge="1" parent="1" source="6UNrDVOiu8i8gjgRsSAC-17" target="6UNrDVOiu8i8gjgRsSAC-27">
          <mxGeometry relative="1" as="geometry">
            <Array as="points" />
          </mxGeometry>
        </mxCell>
        <mxCell id="6UNrDVOiu8i8gjgRsSAC-37" value="" style="curved=1;startArrow=none;endArrow=block;exitX=1;exitY=0.51;entryX=0;entryY=0.51;rounded=0;" edge="1" parent="1" source="6UNrDVOiu8i8gjgRsSAC-27" target="6UNrDVOiu8i8gjgRsSAC-28">
          <mxGeometry relative="1" as="geometry">
            <Array as="points" />
          </mxGeometry>
        </mxCell>
        <mxCell id="6UNrDVOiu8i8gjgRsSAC-38" value="" style="curved=1;startArrow=none;endArrow=block;exitX=1;exitY=0.51;entryX=0;entryY=0.51;rounded=0;" edge="1" parent="1" source="6UNrDVOiu8i8gjgRsSAC-28" target="6UNrDVOiu8i8gjgRsSAC-29">
          <mxGeometry relative="1" as="geometry">
            <Array as="points" />
          </mxGeometry>
        </mxCell>
        <mxCell id="6UNrDVOiu8i8gjgRsSAC-39" value="" style="curved=1;startArrow=none;endArrow=block;exitX=0.29;exitY=1.01;entryX=0.88;entryY=1;rounded=0;" edge="1" parent="1" source="6UNrDVOiu8i8gjgRsSAC-17" target="6UNrDVOiu8i8gjgRsSAC-16">
          <mxGeometry relative="1" as="geometry">
            <Array as="points">
              <mxPoint x="1436" y="892" />
              <mxPoint x="688" y="892" />
            </Array>
          </mxGeometry>
        </mxCell>
        <mxCell id="6UNrDVOiu8i8gjgRsSAC-40" value="" style="curved=1;startArrow=none;endArrow=block;exitX=0.8;exitY=0;entryX=0;entryY=0.5;rounded=0;" edge="1" parent="1" source="6UNrDVOiu8i8gjgRsSAC-16" target="6UNrDVOiu8i8gjgRsSAC-18">
          <mxGeometry relative="1" as="geometry">
            <Array as="points">
              <mxPoint x="688" y="799" />
            </Array>
          </mxGeometry>
        </mxCell>
        <mxCell id="6UNrDVOiu8i8gjgRsSAC-41" value="" style="curved=1;startArrow=none;endArrow=block;exitX=0.99;exitY=0.5;entryX=0;entryY=0.5;rounded=0;" edge="1" parent="1" source="6UNrDVOiu8i8gjgRsSAC-18" target="6UNrDVOiu8i8gjgRsSAC-19">
          <mxGeometry relative="1" as="geometry">
            <Array as="points" />
          </mxGeometry>
        </mxCell>
        <mxCell id="6UNrDVOiu8i8gjgRsSAC-42" value="" style="curved=1;startArrow=none;endArrow=block;exitX=1;exitY=0.5;entryX=0;entryY=0.04;rounded=0;" edge="1" parent="1" source="6UNrDVOiu8i8gjgRsSAC-19" target="6UNrDVOiu8i8gjgRsSAC-20">
          <mxGeometry relative="1" as="geometry">
            <Array as="points">
              <mxPoint x="1147" y="799" />
            </Array>
          </mxGeometry>
        </mxCell>
        <mxCell id="6UNrDVOiu8i8gjgRsSAC-43" value="Continue" style="curved=1;startArrow=none;endArrow=block;exitX=0;exitY=0.96;entryX=1;entryY=0.5;rounded=0;" edge="1" parent="1" source="6UNrDVOiu8i8gjgRsSAC-20" target="6UNrDVOiu8i8gjgRsSAC-16">
          <mxGeometry relative="1" as="geometry">
            <Array as="points">
              <mxPoint x="1147" y="851" />
            </Array>
          </mxGeometry>
        </mxCell>
        <mxCell id="6UNrDVOiu8i8gjgRsSAC-44" value="Stop" style="curved=1;startArrow=none;endArrow=block;exitX=1;exitY=0.5;entryX=0;entryY=0.48;rounded=0;" edge="1" parent="1" source="6UNrDVOiu8i8gjgRsSAC-20" target="6UNrDVOiu8i8gjgRsSAC-17">
          <mxGeometry relative="1" as="geometry">
            <Array as="points">
              <mxPoint x="1436" y="825" />
            </Array>
          </mxGeometry>
        </mxCell>
      </root>
    </mxGraphModel>
  </diagram>
</mxfile>
